<svg id="eaI1ThRUWCw1" xmlns="http://www.w3.org/2000/svg" xmlns:xlink="http://www.w3.org/1999/xlink" viewBox="0 0 449 95" shape-rendering="geometricPrecision" text-rendering="geometricPrecision"><style><![CDATA[#eaI1ThRUWCw3 {animation: eaI1ThRUWCw3_c_o 4000ms linear infinite normal forwards}@keyframes eaI1ThRUWCw3_c_o { 0% {opacity: 0} 72.500000% {opacity: 0} 75% {opacity: 1} 100% {opacity: 1}} #eaI1ThRUWCw4 {animation: eaI1ThRUWCw4_c_o 4000ms linear infinite normal forwards}@keyframes eaI1ThRUWCw4_c_o { 0% {opacity: 0} 47.500000% {opacity: 0} 50% {opacity: 1} 100% {opacity: 1}} #eaI1ThRUWCw5 {animation: eaI1ThRUWCw5_c_o 4000ms linear infinite normal forwards}@keyframes eaI1ThRUWCw5_c_o { 0% {opacity: 0} 22.500000% {opacity: 0} 25% {opacity: 1} 100% {opacity: 1}}]]></style><path id="eaI1ThRUWCw2" d="M0.544000,75L0.544000,5.400000L11.104000,5.400000L11.104000,65.016000L45.664000,65.016000L45.664000,75L0.544000,75ZM233.626000,55.320000C233.626000,52.376000,234.170000,49.624000,235.258000,47.064000C236.410000,44.440000,237.946000,42.168000,239.866000,40.248000C241.786000,38.264000,243.994000,36.696000,246.490000,35.544000C249.050000,34.392000,251.770000,33.816000,254.650000,33.816000C256.570000,33.816000,258.330000,34.072000,259.930000,34.584000C261.530000,35.032000,262.906000,35.608000,264.058000,36.312000C265.210000,37.016000,266.138000,37.752000,266.842000,38.520000C267.546000,39.288000,268.026000,39.960000,268.282000,40.536000L268.666000,34.872000L276.538000,34.872000L276.538000,75L268.282000,75L268.282000,69.912000C267.962000,70.424000,267.450000,71.032000,266.746000,71.736000C266.042000,72.440000,265.114000,73.112000,263.962000,73.752000C262.874000,74.328000,261.562000,74.840000,260.026000,75.288000C258.490000,75.736000,256.730000,75.960000,254.746000,75.960000C251.674000,75.960000,248.826000,75.416000,246.202000,74.328000C243.642000,73.176000,241.434000,71.672000,239.578000,69.816000C237.722000,67.896000,236.250000,65.688000,235.162000,63.192000C234.138000,60.696000,233.626000,58.072000,233.626000,55.320000ZM241.882000,54.840000C241.882000,56.696000,242.202000,58.424000,242.842000,60.024000C243.546000,61.624000,244.474000,63,245.626000,64.152000C246.778000,65.304000,248.154000,66.232000,249.754000,66.936000C251.354000,67.576000,253.114000,67.896000,255.034000,67.896000C256.954000,67.896000,258.714000,67.576000,260.314000,66.936000C261.978000,66.232000,263.386000,65.304000,264.538000,64.152000C265.754000,62.936000,266.682000,61.560000,267.322000,60.024000C267.962000,58.424000,268.282000,56.696000,268.282000,54.840000C268.282000,52.984000,267.962000,51.288000,267.322000,49.752000C266.682000,48.152000,265.754000,46.776000,264.538000,45.624000C263.386000,44.472000,261.978000,43.576000,260.314000,42.936000C258.714000,42.232000,256.954000,41.880000,255.034000,41.880000C253.114000,41.880000,251.354000,42.232000,249.754000,42.936000C248.154000,43.576000,246.778000,44.472000,245.626000,45.624000C244.474000,46.776000,243.546000,48.152000,242.842000,49.752000C242.202000,51.288000,241.882000,52.984000,241.882000,54.840000ZM285.378000,54.936000C285.378000,51.800000,285.890000,48.952000,286.914000,46.392000C288.002000,43.768000,289.474000,41.528000,291.330000,39.672000C293.186000,37.816000,295.362000,36.376000,297.858000,35.352000C300.418000,34.328000,303.170000,33.816000,306.114000,33.816000C308.098000,33.816000,309.858000,34.072000,311.394000,34.584000C312.994000,35.032000,314.338000,35.608000,315.426000,36.312000C316.578000,36.952000,317.538000,37.688000,318.306000,38.520000C319.074000,39.352000,319.650000,40.088000,320.034000,40.728000L320.034000,0.407999L328.290000,0.407999L328.290000,75L320.034000,75L320.034000,72.024000C320.034000,71.640000,320.066000,71.224000,320.130000,70.776000C320.194000,70.264000,320.226000,69.848000,320.226000,69.528000C319.586000,70.296000,318.818000,71.064000,317.922000,71.832000C317.090000,72.536000,316.098000,73.208000,314.946000,73.848000C313.794000,74.488000,312.450000,75,310.914000,75.384000C309.442000,75.768000,307.746000,75.960000,305.826000,75.960000C302.626000,75.960000,299.746000,75.416000,297.186000,74.328000C294.690000,73.176000,292.546000,71.672000,290.754000,69.816000C289.026000,67.896000,287.682000,65.656000,286.722000,63.096000C285.826000,60.536000,285.378000,57.816000,285.378000,54.936000ZM293.634000,54.840000C293.634000,56.696000,293.954000,58.424000,294.594000,60.024000C295.298000,61.624000,296.226000,63,297.378000,64.152000C298.530000,65.304000,299.906000,66.232000,301.506000,66.936000C303.106000,67.576000,304.866000,67.896000,306.786000,67.896000C308.706000,67.896000,310.466000,67.576000,312.066000,66.936000C313.730000,66.232000,315.138000,65.304000,316.290000,64.152000C317.506000,62.936000,318.434000,61.560000,319.074000,60.024000C319.714000,58.424000,320.034000,56.696000,320.034000,54.840000C320.034000,52.984000,319.714000,51.288000,319.074000,49.752000C318.434000,48.152000,317.506000,46.776000,316.290000,45.624000C315.138000,44.472000,313.730000,43.576000,312.066000,42.936000C310.466000,42.232000,308.706000,41.880000,306.786000,41.880000C304.866000,41.880000,303.106000,42.232000,301.506000,42.936000C299.906000,43.576000,298.530000,44.472000,297.378000,45.624000C296.226000,46.776000,295.298000,48.152000,294.594000,49.752000C293.954000,51.288000,293.634000,52.984000,293.634000,54.840000ZM338.760000,19.512000C338.760000,17.976000,339.304000,16.696000,340.392000,15.672000C341.544000,14.648000,342.760000,14.136000,344.040000,14.136000C345.320000,14.136000,346.504000,14.648000,347.592000,15.672000C348.680000,16.696000,349.224000,17.976000,349.224000,19.512000C349.224000,21.048000,348.680000,22.328000,347.592000,23.352000C346.504000,24.312000,345.320000,24.792000,344.040000,24.792000C342.760000,24.792000,341.544000,24.312000,340.392000,23.352000C339.304000,22.328000,338.760000,21.048000,338.760000,19.512000ZM347.976000,75L339.816000,75L339.816000,34.872000L347.976000,34.872000L347.976000,75ZM359.504000,34.872000L366.704000,34.872000C366.832000,36.856000,366.928000,38.680000,366.992000,40.344000C367.120000,41.944000,367.248000,43.544000,367.376000,45.144000C368.848000,41.688000,370.928000,38.936000,373.616000,36.888000C376.368000,34.840000,379.728000,33.816000,383.696000,33.816000C387.728000,33.816000,390.960000,34.936000,393.392000,37.176000C395.824000,39.416000,397.104000,42.296000,397.232000,45.816000L397.232000,75L388.976000,75L388.976000,49.560000C388.848000,47.512000,388.144000,45.784000,386.864000,44.376000C385.584000,42.904000,383.568000,42.104000,380.816000,41.976000C378.896000,41.976000,377.136000,42.328000,375.536000,43.032000C373.936000,43.672000,372.560000,44.568000,371.408000,45.720000C370.256000,46.872000,369.328000,48.248000,368.624000,49.848000C367.984000,51.448000,367.664000,53.208000,367.664000,55.128000L367.664000,75L359.504000,75L359.504000,34.872000ZM405.659000,55.032000C405.659000,52.024000,406.203000,49.240000,407.291000,46.680000C408.379000,44.056000,409.851000,41.816000,411.707000,39.960000C413.563000,38.040000,415.739000,36.536000,418.235000,35.448000C420.731000,34.360000,423.387000,33.816000,426.203000,33.816000C428.379000,33.816000,430.299000,34.104000,431.963000,34.680000C433.691000,35.256000,435.131000,35.928000,436.283000,36.696000C437.435000,37.464000,438.331000,38.232000,438.971000,39C439.675000,39.704000,440.123000,40.216000,440.315000,40.536000C440.315000,39.640000,440.379000,38.712000,440.507000,37.752000C440.635000,36.728000,440.699000,35.768000,440.699000,34.872000L448.571000,34.872000L448.571000,73.176000C448.571000,79.832000,446.619000,85.016000,442.715000,88.728000C438.811000,92.440000,433.531000,94.296000,426.875000,94.296000C424.571000,94.296000,422.491000,94.040000,420.635000,93.528000C418.843000,93.080000,417.179000,92.472000,415.643000,91.704000C414.171000,90.936000,412.795000,90.040000,411.515000,89.016000C410.299000,87.992000,409.083000,86.936000,407.867000,85.848000L413.147000,80.280000C415.131000,82.136000,417.147000,83.608000,419.195000,84.696000C421.307000,85.784000,423.803000,86.328000,426.683000,86.328000C430.971000,86.328000,434.299000,85.304000,436.667000,83.256000C439.035000,81.208000,440.251000,78.360000,440.315000,74.712000L440.315000,71.928000C440.315000,71.416000,440.379000,70.872000,440.507000,70.296000C440.635000,69.656000,440.699000,69.176000,440.699000,68.856000C440.123000,69.624000,439.387000,70.456000,438.491000,71.352000C437.659000,72.184000,436.667000,72.952000,435.515000,73.656000C434.363000,74.296000,433.019000,74.840000,431.483000,75.288000C429.947000,75.736000,428.219000,75.960000,426.299000,75.960000C423.291000,75.960000,420.539000,75.416000,418.043000,74.328000C415.547000,73.240000,413.371000,71.768000,411.515000,69.912000C409.659000,67.992000,408.219000,65.784000,407.195000,63.288000C406.171000,60.728000,405.659000,57.976000,405.659000,55.032000ZM413.915000,54.840000C413.915000,56.696000,414.235000,58.424000,414.875000,60.024000C415.579000,61.624000,416.507000,63,417.659000,64.152000C418.811000,65.304000,420.187000,66.232000,421.787000,66.936000C423.387000,67.576000,425.147000,67.896000,427.067000,67.896000C428.987000,67.896000,430.747000,67.576000,432.347000,66.936000C434.011000,66.232000,435.419000,65.304000,436.571000,64.152000C437.787000,62.936000,438.715000,61.560000,439.355000,60.024000C439.995000,58.424000,440.315000,56.696000,440.315000,54.840000C440.315000,52.984000,439.995000,51.288000,439.355000,49.752000C438.715000,48.152000,437.787000,46.776000,436.571000,45.624000C435.419000,44.472000,434.011000,43.576000,432.347000,42.936000C430.747000,42.232000,428.987000,41.880000,427.067000,41.880000C425.147000,41.880000,423.387000,42.232000,421.787000,42.936000C420.187000,43.576000,418.811000,44.472000,417.659000,45.624000C416.507000,46.776000,415.579000,48.152000,414.875000,49.752000C414.235000,51.288000,413.915000,52.984000,413.915000,54.840000Z" fill="rgb(0,0,0)" stroke="none" stroke-width="1"/><ellipse id="eaI1ThRUWCw3" rx="22.022439" ry="22.022439" transform="matrix(0.95444457237991 0 0 0.95444457237991 197.69468374999997 54.83843874999999)" opacity="0" fill="rgb(0,0,0)" stroke="none" stroke-width="0"/><ellipse id="eaI1ThRUWCw4" rx="22.022439" ry="22.022439" transform="matrix(0.95444457237991 0 0 0.95444457237991 140.69468374999997 54.83843874999999)" opacity="0" fill="rgb(0,0,0)" stroke="none" stroke-width="0"/><ellipse id="eaI1ThRUWCw5" rx="22.022439" ry="22.022439" transform="matrix(0.95444457237991 0 0 0.95444457237991 83.69468374999997 54.83843874999999)" opacity="0" fill="rgb(0,0,0)" stroke="none" stroke-width="0"/></svg>